<mxfile host="app.diagrams.net" modified="2024-07-04T08:48:41.107Z" agent="Mozilla/5.0 (Windows NT 10.0; Win64; x64) AppleWebKit/537.36 (KHTML, like Gecko) Chrome/126.0.0.0 Safari/537.36" etag="GOpvIB9vrLi3xXfk_OzB" version="24.6.4" type="github">
  <diagram name="第 1 页" id="6jLwEe3Q7Ie_MfTxPmG3">
    <mxGraphModel dx="1434" dy="746" grid="1" gridSize="10" guides="1" tooltips="1" connect="1" arrows="1" fold="1" page="1" pageScale="1" pageWidth="827" pageHeight="1169" math="0" shadow="0">
      <root>
        <mxCell id="0" />
        <mxCell id="1" parent="0" />
        <mxCell id="QM46VXPzepDQlr1Fwprh-2" style="edgeStyle=orthogonalEdgeStyle;rounded=0;orthogonalLoop=1;jettySize=auto;html=1;" edge="1" parent="1" source="QM46VXPzepDQlr1Fwprh-1">
          <mxGeometry relative="1" as="geometry">
            <mxPoint x="606" y="190" as="targetPoint" />
          </mxGeometry>
        </mxCell>
        <mxCell id="QM46VXPzepDQlr1Fwprh-3" style="edgeStyle=orthogonalEdgeStyle;rounded=0;orthogonalLoop=1;jettySize=auto;html=1;" edge="1" parent="1" source="QM46VXPzepDQlr1Fwprh-1" target="QM46VXPzepDQlr1Fwprh-5">
          <mxGeometry relative="1" as="geometry">
            <mxPoint x="906" y="150" as="targetPoint" />
          </mxGeometry>
        </mxCell>
        <mxCell id="QM46VXPzepDQlr1Fwprh-1" value="订单列表" style="rounded=1;whiteSpace=wrap;html=1;" vertex="1" parent="1">
          <mxGeometry x="686" y="20" width="120" height="60" as="geometry" />
        </mxCell>
        <mxCell id="QM46VXPzepDQlr1Fwprh-6" style="edgeStyle=orthogonalEdgeStyle;rounded=0;orthogonalLoop=1;jettySize=auto;html=1;" edge="1" parent="1" source="QM46VXPzepDQlr1Fwprh-4" target="QM46VXPzepDQlr1Fwprh-7">
          <mxGeometry relative="1" as="geometry">
            <mxPoint x="596" y="360" as="targetPoint" />
          </mxGeometry>
        </mxCell>
        <mxCell id="QM46VXPzepDQlr1Fwprh-4" value="预约自提" style="rounded=1;whiteSpace=wrap;html=1;" vertex="1" parent="1">
          <mxGeometry x="536" y="190" width="120" height="60" as="geometry" />
        </mxCell>
        <mxCell id="QM46VXPzepDQlr1Fwprh-37" style="edgeStyle=orthogonalEdgeStyle;rounded=0;orthogonalLoop=1;jettySize=auto;html=1;" edge="1" parent="1" source="QM46VXPzepDQlr1Fwprh-5" target="QM46VXPzepDQlr1Fwprh-14">
          <mxGeometry relative="1" as="geometry" />
        </mxCell>
        <mxCell id="QM46VXPzepDQlr1Fwprh-40" style="edgeStyle=orthogonalEdgeStyle;rounded=0;orthogonalLoop=1;jettySize=auto;html=1;entryX=0.5;entryY=0;entryDx=0;entryDy=0;" edge="1" parent="1" source="QM46VXPzepDQlr1Fwprh-5" target="QM46VXPzepDQlr1Fwprh-41">
          <mxGeometry relative="1" as="geometry">
            <mxPoint x="876" y="340" as="targetPoint" />
          </mxGeometry>
        </mxCell>
        <mxCell id="QM46VXPzepDQlr1Fwprh-86" style="edgeStyle=orthogonalEdgeStyle;shape=connector;rounded=0;orthogonalLoop=1;jettySize=auto;html=1;strokeColor=default;align=center;verticalAlign=middle;fontFamily=Helvetica;fontSize=11;fontColor=default;labelBackgroundColor=default;endArrow=classic;" edge="1" parent="1" source="QM46VXPzepDQlr1Fwprh-5" target="QM46VXPzepDQlr1Fwprh-26">
          <mxGeometry relative="1" as="geometry">
            <Array as="points">
              <mxPoint x="1051" y="310" />
              <mxPoint x="1186" y="310" />
            </Array>
          </mxGeometry>
        </mxCell>
        <mxCell id="QM46VXPzepDQlr1Fwprh-5" value="预约自提明细" style="rounded=1;whiteSpace=wrap;html=1;" vertex="1" parent="1">
          <mxGeometry x="946" y="190" width="120" height="60" as="geometry" />
        </mxCell>
        <mxCell id="QM46VXPzepDQlr1Fwprh-7" value="新建预约信息页面" style="rounded=1;whiteSpace=wrap;html=1;" vertex="1" parent="1">
          <mxGeometry x="536" y="330" width="120" height="60" as="geometry" />
        </mxCell>
        <mxCell id="QM46VXPzepDQlr1Fwprh-9" value="" style="edgeStyle=orthogonalEdgeStyle;rounded=0;orthogonalLoop=1;jettySize=auto;html=1;exitX=0.25;exitY=1;exitDx=0;exitDy=0;" edge="1" parent="1" source="QM46VXPzepDQlr1Fwprh-5" target="QM46VXPzepDQlr1Fwprh-17">
          <mxGeometry relative="1" as="geometry">
            <mxPoint x="976" y="260" as="sourcePoint" />
            <Array as="points">
              <mxPoint x="1036" y="250" />
              <mxPoint x="1036" y="325" />
              <mxPoint x="1076" y="325" />
            </Array>
          </mxGeometry>
        </mxCell>
        <mxCell id="QM46VXPzepDQlr1Fwprh-87" style="edgeStyle=orthogonalEdgeStyle;shape=connector;rounded=0;orthogonalLoop=1;jettySize=auto;html=1;entryX=0.5;entryY=0;entryDx=0;entryDy=0;strokeColor=default;align=center;verticalAlign=middle;fontFamily=Helvetica;fontSize=11;fontColor=default;labelBackgroundColor=default;endArrow=classic;" edge="1" parent="1">
          <mxGeometry relative="1" as="geometry">
            <mxPoint x="980" y="382" as="sourcePoint" />
            <mxPoint x="1070.5" y="568" as="targetPoint" />
            <Array as="points">
              <mxPoint x="980" y="562" />
              <mxPoint x="1071" y="562" />
            </Array>
          </mxGeometry>
        </mxCell>
        <mxCell id="QM46VXPzepDQlr1Fwprh-88" value="&lt;span style=&quot;font-size: 12px; text-wrap: wrap; background-color: rgb(251, 251, 251);&quot;&gt;携带搜索条件查询&lt;/span&gt;" style="edgeLabel;html=1;align=center;verticalAlign=middle;resizable=0;points=[];fontFamily=Helvetica;fontSize=11;fontColor=default;labelBackgroundColor=default;" vertex="1" connectable="0" parent="QM46VXPzepDQlr1Fwprh-87">
          <mxGeometry x="-0.4647" y="4" relative="1" as="geometry">
            <mxPoint x="-3" y="2" as="offset" />
          </mxGeometry>
        </mxCell>
        <mxCell id="QM46VXPzepDQlr1Fwprh-14" value="搜索" style="whiteSpace=wrap;html=1;rounded=1;glass=0;strokeWidth=1;shadow=0;" vertex="1" parent="1">
          <mxGeometry x="946" y="340" width="80" height="40" as="geometry" />
        </mxCell>
        <mxCell id="QM46VXPzepDQlr1Fwprh-43" style="edgeStyle=orthogonalEdgeStyle;rounded=0;orthogonalLoop=1;jettySize=auto;html=1;" edge="1" parent="1" source="QM46VXPzepDQlr1Fwprh-17">
          <mxGeometry relative="1" as="geometry">
            <mxPoint x="1076" y="560" as="targetPoint" />
          </mxGeometry>
        </mxCell>
        <mxCell id="QM46VXPzepDQlr1Fwprh-89" value="&lt;span style=&quot;font-size: 12px; text-wrap: wrap; background-color: rgb(251, 251, 251);&quot;&gt;清空信息搜索&lt;/span&gt;" style="edgeLabel;html=1;align=center;verticalAlign=middle;resizable=0;points=[];fontFamily=Helvetica;fontSize=11;fontColor=default;labelBackgroundColor=default;" vertex="1" connectable="0" parent="QM46VXPzepDQlr1Fwprh-43">
          <mxGeometry x="-0.4349" relative="1" as="geometry">
            <mxPoint y="31" as="offset" />
          </mxGeometry>
        </mxCell>
        <mxCell id="QM46VXPzepDQlr1Fwprh-17" value="重置" style="whiteSpace=wrap;html=1;rounded=1;glass=0;strokeWidth=1;shadow=0;" vertex="1" parent="1">
          <mxGeometry x="1036" y="340" width="80" height="40" as="geometry" />
        </mxCell>
        <mxCell id="QM46VXPzepDQlr1Fwprh-19" value="" style="edgeStyle=orthogonalEdgeStyle;rounded=0;orthogonalLoop=1;jettySize=auto;html=1;" edge="1" parent="1" target="QM46VXPzepDQlr1Fwprh-33">
          <mxGeometry relative="1" as="geometry">
            <mxPoint x="700" y="440" as="sourcePoint" />
          </mxGeometry>
        </mxCell>
        <mxCell id="QM46VXPzepDQlr1Fwprh-21" value="刷新列表" style="rounded=1;whiteSpace=wrap;html=1;fontSize=12;glass=0;strokeWidth=1;shadow=0;" vertex="1" parent="1">
          <mxGeometry x="876" y="586" width="80" height="40" as="geometry" />
        </mxCell>
        <mxCell id="QM46VXPzepDQlr1Fwprh-22" value="提示错误信息" style="rounded=1;whiteSpace=wrap;html=1;" vertex="1" parent="1">
          <mxGeometry x="1196" y="586" width="80" height="40" as="geometry" />
        </mxCell>
        <mxCell id="QM46VXPzepDQlr1Fwprh-91" style="edgeStyle=orthogonalEdgeStyle;shape=connector;rounded=0;orthogonalLoop=1;jettySize=auto;html=1;entryX=0.5;entryY=0;entryDx=0;entryDy=0;strokeColor=default;align=center;verticalAlign=middle;fontFamily=Helvetica;fontSize=11;fontColor=default;labelBackgroundColor=default;endArrow=classic;" edge="1" parent="1" source="QM46VXPzepDQlr1Fwprh-26" target="QM46VXPzepDQlr1Fwprh-90">
          <mxGeometry relative="1" as="geometry" />
        </mxCell>
        <mxCell id="QM46VXPzepDQlr1Fwprh-26" value="取消预约" style="whiteSpace=wrap;html=1;rounded=1;glass=0;strokeWidth=1;shadow=0;" vertex="1" parent="1">
          <mxGeometry x="1146" y="340" width="80" height="40" as="geometry" />
        </mxCell>
        <mxCell id="QM46VXPzepDQlr1Fwprh-48" style="edgeStyle=orthogonalEdgeStyle;shape=connector;rounded=0;orthogonalLoop=1;jettySize=auto;html=1;strokeColor=default;align=center;verticalAlign=middle;fontFamily=Helvetica;fontSize=11;fontColor=default;labelBackgroundColor=default;endArrow=classic;" edge="1" parent="1" source="QM46VXPzepDQlr1Fwprh-28" target="QM46VXPzepDQlr1Fwprh-21">
          <mxGeometry relative="1" as="geometry" />
        </mxCell>
        <mxCell id="QM46VXPzepDQlr1Fwprh-71" value="是" style="edgeLabel;html=1;align=center;verticalAlign=middle;resizable=0;points=[];fontFamily=Helvetica;fontSize=11;fontColor=default;labelBackgroundColor=default;" vertex="1" connectable="0" parent="QM46VXPzepDQlr1Fwprh-48">
          <mxGeometry x="-0.1429" y="-1" relative="1" as="geometry">
            <mxPoint as="offset" />
          </mxGeometry>
        </mxCell>
        <mxCell id="QM46VXPzepDQlr1Fwprh-50" style="edgeStyle=orthogonalEdgeStyle;shape=connector;rounded=0;orthogonalLoop=1;jettySize=auto;html=1;strokeColor=default;align=center;verticalAlign=middle;fontFamily=Helvetica;fontSize=11;fontColor=default;labelBackgroundColor=default;endArrow=classic;" edge="1" parent="1" source="QM46VXPzepDQlr1Fwprh-28" target="QM46VXPzepDQlr1Fwprh-22">
          <mxGeometry relative="1" as="geometry" />
        </mxCell>
        <mxCell id="QM46VXPzepDQlr1Fwprh-72" value="否" style="edgeLabel;html=1;align=center;verticalAlign=middle;resizable=0;points=[];fontFamily=Helvetica;fontSize=11;fontColor=default;labelBackgroundColor=default;" vertex="1" connectable="0" parent="QM46VXPzepDQlr1Fwprh-50">
          <mxGeometry x="-0.0818" y="4" relative="1" as="geometry">
            <mxPoint x="1" as="offset" />
          </mxGeometry>
        </mxCell>
        <mxCell id="QM46VXPzepDQlr1Fwprh-28" value="调用接口&lt;div&gt;是否成功&lt;/div&gt;" style="rhombus;whiteSpace=wrap;html=1;" vertex="1" parent="1">
          <mxGeometry x="1036.5" y="566" width="80" height="80" as="geometry" />
        </mxCell>
        <mxCell id="QM46VXPzepDQlr1Fwprh-42" style="edgeStyle=orthogonalEdgeStyle;rounded=0;orthogonalLoop=1;jettySize=auto;html=1;entryX=1;entryY=0.5;entryDx=0;entryDy=0;" edge="1" parent="1" source="QM46VXPzepDQlr1Fwprh-41" target="QM46VXPzepDQlr1Fwprh-7">
          <mxGeometry relative="1" as="geometry" />
        </mxCell>
        <mxCell id="QM46VXPzepDQlr1Fwprh-41" value="新建" style="whiteSpace=wrap;html=1;rounded=1;glass=0;strokeWidth=1;shadow=0;" vertex="1" parent="1">
          <mxGeometry x="756" y="340" width="80" height="40" as="geometry" />
        </mxCell>
        <mxCell id="QM46VXPzepDQlr1Fwprh-51" value="订单详情" style="rounded=1;whiteSpace=wrap;html=1;" vertex="1" parent="1">
          <mxGeometry x="1156" y="20" width="120" height="60" as="geometry" />
        </mxCell>
        <mxCell id="QM46VXPzepDQlr1Fwprh-52" style="edgeStyle=orthogonalEdgeStyle;shape=connector;rounded=0;orthogonalLoop=1;jettySize=auto;html=1;entryX=0.608;entryY=0.017;entryDx=0;entryDy=0;entryPerimeter=0;strokeColor=default;align=center;verticalAlign=middle;fontFamily=Helvetica;fontSize=11;fontColor=default;labelBackgroundColor=default;endArrow=classic;" edge="1" parent="1" source="QM46VXPzepDQlr1Fwprh-51" target="QM46VXPzepDQlr1Fwprh-5">
          <mxGeometry relative="1" as="geometry" />
        </mxCell>
        <mxCell id="QM46VXPzepDQlr1Fwprh-85" value="&lt;span style=&quot;text-wrap: wrap;&quot;&gt;携带sap订单号&lt;/span&gt;" style="edgeLabel;html=1;align=center;verticalAlign=middle;resizable=0;points=[];fontFamily=Helvetica;fontSize=11;fontColor=default;labelBackgroundColor=default;" vertex="1" connectable="0" parent="QM46VXPzepDQlr1Fwprh-52">
          <mxGeometry x="-0.4821" y="2" relative="1" as="geometry">
            <mxPoint as="offset" />
          </mxGeometry>
        </mxCell>
        <mxCell id="QM46VXPzepDQlr1Fwprh-76" style="edgeStyle=orthogonalEdgeStyle;shape=connector;rounded=0;orthogonalLoop=1;jettySize=auto;html=1;entryX=0.5;entryY=0;entryDx=0;entryDy=0;strokeColor=default;align=center;verticalAlign=middle;fontFamily=Helvetica;fontSize=11;fontColor=default;labelBackgroundColor=default;endArrow=classic;" edge="1" parent="1" source="QM46VXPzepDQlr1Fwprh-57" target="QM46VXPzepDQlr1Fwprh-75">
          <mxGeometry relative="1" as="geometry" />
        </mxCell>
        <mxCell id="QM46VXPzepDQlr1Fwprh-57" value="提交" style="rounded=1;whiteSpace=wrap;html=1;fontFamily=Helvetica;fontSize=11;fontColor=default;labelBackgroundColor=default;" vertex="1" parent="1">
          <mxGeometry x="586" y="840" width="120" height="60" as="geometry" />
        </mxCell>
        <mxCell id="QM46VXPzepDQlr1Fwprh-68" style="edgeStyle=orthogonalEdgeStyle;shape=connector;rounded=0;orthogonalLoop=1;jettySize=auto;html=1;strokeColor=default;align=center;verticalAlign=middle;fontFamily=Helvetica;fontSize=11;fontColor=default;labelBackgroundColor=default;endArrow=classic;" edge="1" parent="1" source="QM46VXPzepDQlr1Fwprh-61" target="QM46VXPzepDQlr1Fwprh-67">
          <mxGeometry relative="1" as="geometry" />
        </mxCell>
        <mxCell id="QM46VXPzepDQlr1Fwprh-61" value="Form" style="swimlane;fontStyle=0;childLayout=stackLayout;horizontal=1;startSize=30;horizontalStack=0;resizeParent=1;resizeParentMax=0;resizeLast=0;collapsible=1;marginBottom=0;whiteSpace=wrap;html=1;fontFamily=Helvetica;fontSize=11;fontColor=default;labelBackgroundColor=default;" vertex="1" parent="1">
          <mxGeometry x="536" y="530" width="220" height="120" as="geometry" />
        </mxCell>
        <mxCell id="QM46VXPzepDQlr1Fwprh-62" value="选择工厂/仓库" style="text;strokeColor=none;fillColor=none;align=left;verticalAlign=middle;spacingLeft=4;spacingRight=4;overflow=hidden;points=[[0,0.5],[1,0.5]];portConstraint=eastwest;rotatable=0;whiteSpace=wrap;html=1;fontFamily=Helvetica;fontSize=11;fontColor=default;labelBackgroundColor=default;" vertex="1" parent="QM46VXPzepDQlr1Fwprh-61">
          <mxGeometry y="30" width="220" height="30" as="geometry" />
        </mxCell>
        <mxCell id="QM46VXPzepDQlr1Fwprh-63" value="Item 2" style="text;strokeColor=none;fillColor=none;align=left;verticalAlign=middle;spacingLeft=4;spacingRight=4;overflow=hidden;points=[[0,0.5],[1,0.5]];portConstraint=eastwest;rotatable=0;whiteSpace=wrap;html=1;fontFamily=Helvetica;fontSize=11;fontColor=default;labelBackgroundColor=default;" vertex="1" parent="QM46VXPzepDQlr1Fwprh-61">
          <mxGeometry y="60" width="220" height="30" as="geometry" />
        </mxCell>
        <mxCell id="QM46VXPzepDQlr1Fwprh-64" value="Item 3" style="text;strokeColor=none;fillColor=none;align=left;verticalAlign=middle;spacingLeft=4;spacingRight=4;overflow=hidden;points=[[0,0.5],[1,0.5]];portConstraint=eastwest;rotatable=0;whiteSpace=wrap;html=1;fontFamily=Helvetica;fontSize=11;fontColor=default;labelBackgroundColor=default;" vertex="1" parent="QM46VXPzepDQlr1Fwprh-61">
          <mxGeometry y="90" width="220" height="30" as="geometry" />
        </mxCell>
        <mxCell id="QM46VXPzepDQlr1Fwprh-66" style="edgeStyle=orthogonalEdgeStyle;shape=connector;rounded=0;orthogonalLoop=1;jettySize=auto;html=1;entryX=0.429;entryY=-0.042;entryDx=0;entryDy=0;entryPerimeter=0;strokeColor=default;align=center;verticalAlign=middle;fontFamily=Helvetica;fontSize=11;fontColor=default;labelBackgroundColor=default;endArrow=classic;" edge="1" parent="1" source="QM46VXPzepDQlr1Fwprh-7" target="QM46VXPzepDQlr1Fwprh-61">
          <mxGeometry relative="1" as="geometry" />
        </mxCell>
        <mxCell id="QM46VXPzepDQlr1Fwprh-69" style="edgeStyle=orthogonalEdgeStyle;shape=connector;rounded=0;orthogonalLoop=1;jettySize=auto;html=1;strokeColor=default;align=center;verticalAlign=middle;fontFamily=Helvetica;fontSize=11;fontColor=default;labelBackgroundColor=default;endArrow=classic;" edge="1" parent="1" source="QM46VXPzepDQlr1Fwprh-67" target="QM46VXPzepDQlr1Fwprh-57">
          <mxGeometry relative="1" as="geometry" />
        </mxCell>
        <mxCell id="QM46VXPzepDQlr1Fwprh-70" value="是" style="edgeLabel;html=1;align=center;verticalAlign=middle;resizable=0;points=[];fontFamily=Helvetica;fontSize=11;fontColor=default;labelBackgroundColor=default;" vertex="1" connectable="0" parent="QM46VXPzepDQlr1Fwprh-69">
          <mxGeometry y="-2" relative="1" as="geometry">
            <mxPoint as="offset" />
          </mxGeometry>
        </mxCell>
        <mxCell id="QM46VXPzepDQlr1Fwprh-73" style="edgeStyle=orthogonalEdgeStyle;shape=connector;rounded=0;orthogonalLoop=1;jettySize=auto;html=1;strokeColor=default;align=center;verticalAlign=middle;fontFamily=Helvetica;fontSize=11;fontColor=default;labelBackgroundColor=default;endArrow=classic;" edge="1" parent="1" source="QM46VXPzepDQlr1Fwprh-67" target="QM46VXPzepDQlr1Fwprh-22">
          <mxGeometry relative="1" as="geometry">
            <mxPoint x="766" y="750" as="targetPoint" />
          </mxGeometry>
        </mxCell>
        <mxCell id="QM46VXPzepDQlr1Fwprh-74" value="否" style="edgeLabel;html=1;align=center;verticalAlign=middle;resizable=0;points=[];fontFamily=Helvetica;fontSize=11;fontColor=default;labelBackgroundColor=default;" vertex="1" connectable="0" parent="QM46VXPzepDQlr1Fwprh-73">
          <mxGeometry x="-0.2691" y="5" relative="1" as="geometry">
            <mxPoint as="offset" />
          </mxGeometry>
        </mxCell>
        <mxCell id="QM46VXPzepDQlr1Fwprh-67" value="校验通过" style="rhombus;whiteSpace=wrap;html=1;fontFamily=Helvetica;fontSize=11;fontColor=default;labelBackgroundColor=default;" vertex="1" parent="1">
          <mxGeometry x="606" y="710" width="80" height="80" as="geometry" />
        </mxCell>
        <mxCell id="QM46VXPzepDQlr1Fwprh-77" style="edgeStyle=orthogonalEdgeStyle;shape=connector;rounded=0;orthogonalLoop=1;jettySize=auto;html=1;entryX=0.75;entryY=1;entryDx=0;entryDy=0;strokeColor=default;align=center;verticalAlign=middle;fontFamily=Helvetica;fontSize=11;fontColor=default;labelBackgroundColor=default;endArrow=classic;" edge="1" parent="1" source="QM46VXPzepDQlr1Fwprh-75" target="QM46VXPzepDQlr1Fwprh-22">
          <mxGeometry relative="1" as="geometry" />
        </mxCell>
        <mxCell id="QM46VXPzepDQlr1Fwprh-78" value="否" style="edgeLabel;html=1;align=center;verticalAlign=middle;resizable=0;points=[];fontFamily=Helvetica;fontSize=11;fontColor=default;labelBackgroundColor=default;" vertex="1" connectable="0" parent="QM46VXPzepDQlr1Fwprh-77">
          <mxGeometry x="-0.4553" y="2" relative="1" as="geometry">
            <mxPoint as="offset" />
          </mxGeometry>
        </mxCell>
        <mxCell id="QM46VXPzepDQlr1Fwprh-80" style="edgeStyle=orthogonalEdgeStyle;shape=connector;rounded=0;orthogonalLoop=1;jettySize=auto;html=1;entryX=1;entryY=0.5;entryDx=0;entryDy=0;strokeColor=default;align=center;verticalAlign=middle;fontFamily=Helvetica;fontSize=11;fontColor=default;labelBackgroundColor=default;endArrow=classic;" edge="1" parent="1" source="QM46VXPzepDQlr1Fwprh-75" target="QM46VXPzepDQlr1Fwprh-5">
          <mxGeometry relative="1" as="geometry">
            <Array as="points">
              <mxPoint x="646" y="1070" />
              <mxPoint x="1376" y="1070" />
              <mxPoint x="1376" y="220" />
            </Array>
          </mxGeometry>
        </mxCell>
        <mxCell id="QM46VXPzepDQlr1Fwprh-81" value="是" style="edgeLabel;html=1;align=center;verticalAlign=middle;resizable=0;points=[];fontFamily=Helvetica;fontSize=11;fontColor=default;labelBackgroundColor=default;" vertex="1" connectable="0" parent="QM46VXPzepDQlr1Fwprh-80">
          <mxGeometry x="-0.5932" relative="1" as="geometry">
            <mxPoint as="offset" />
          </mxGeometry>
        </mxCell>
        <mxCell id="QM46VXPzepDQlr1Fwprh-75" value="调用接口&lt;div&gt;是否成功&lt;/div&gt;" style="rhombus;whiteSpace=wrap;html=1;" vertex="1" parent="1">
          <mxGeometry x="606" y="960" width="80" height="80" as="geometry" />
        </mxCell>
        <mxCell id="QM46VXPzepDQlr1Fwprh-82" value="再次发起" style="whiteSpace=wrap;html=1;rounded=1;glass=0;strokeWidth=1;shadow=0;" vertex="1" parent="1">
          <mxGeometry x="1256" y="340" width="80" height="40" as="geometry" />
        </mxCell>
        <mxCell id="QM46VXPzepDQlr1Fwprh-83" style="edgeStyle=orthogonalEdgeStyle;shape=connector;rounded=0;orthogonalLoop=1;jettySize=auto;html=1;entryX=0.833;entryY=-0.017;entryDx=0;entryDy=0;entryPerimeter=0;strokeColor=default;align=center;verticalAlign=middle;fontFamily=Helvetica;fontSize=11;fontColor=default;labelBackgroundColor=default;endArrow=classic;" edge="1" parent="1">
          <mxGeometry relative="1" as="geometry">
            <mxPoint x="1277" y="341" as="sourcePoint" />
            <mxPoint x="616.96" y="329.98" as="targetPoint" />
            <Array as="points">
              <mxPoint x="1277" y="281" />
              <mxPoint x="617" y="281" />
            </Array>
          </mxGeometry>
        </mxCell>
        <mxCell id="QM46VXPzepDQlr1Fwprh-84" value="携带当前行信息" style="edgeLabel;html=1;align=center;verticalAlign=middle;resizable=0;points=[];fontFamily=Helvetica;fontSize=11;fontColor=default;labelBackgroundColor=default;" vertex="1" connectable="0" parent="QM46VXPzepDQlr1Fwprh-83">
          <mxGeometry x="-0.9298" y="2" relative="1" as="geometry">
            <mxPoint as="offset" />
          </mxGeometry>
        </mxCell>
        <mxCell id="QM46VXPzepDQlr1Fwprh-92" style="edgeStyle=orthogonalEdgeStyle;shape=connector;rounded=0;orthogonalLoop=1;jettySize=auto;html=1;strokeColor=default;align=center;verticalAlign=middle;fontFamily=Helvetica;fontSize=11;fontColor=default;labelBackgroundColor=default;endArrow=classic;" edge="1" parent="1">
          <mxGeometry relative="1" as="geometry">
            <mxPoint x="1192" y="501" as="sourcePoint" />
            <mxPoint x="1083" y="567.5" as="targetPoint" />
            <Array as="points">
              <mxPoint x="1191" y="501" />
              <mxPoint x="1191" y="561" />
              <mxPoint x="1083" y="561" />
            </Array>
          </mxGeometry>
        </mxCell>
        <mxCell id="QM46VXPzepDQlr1Fwprh-93" value="是" style="edgeLabel;html=1;align=center;verticalAlign=middle;resizable=0;points=[];fontFamily=Helvetica;fontSize=11;fontColor=default;labelBackgroundColor=default;" vertex="1" connectable="0" parent="QM46VXPzepDQlr1Fwprh-92">
          <mxGeometry x="0.3333" y="2" relative="1" as="geometry">
            <mxPoint as="offset" />
          </mxGeometry>
        </mxCell>
        <mxCell id="QM46VXPzepDQlr1Fwprh-100" style="edgeStyle=orthogonalEdgeStyle;shape=connector;rounded=0;orthogonalLoop=1;jettySize=auto;html=1;entryX=0;entryY=0.5;entryDx=0;entryDy=0;strokeColor=default;align=center;verticalAlign=middle;fontFamily=Helvetica;fontSize=11;fontColor=default;labelBackgroundColor=default;endArrow=classic;" edge="1" parent="1" source="QM46VXPzepDQlr1Fwprh-90" target="QM46VXPzepDQlr1Fwprh-98">
          <mxGeometry relative="1" as="geometry" />
        </mxCell>
        <mxCell id="QM46VXPzepDQlr1Fwprh-101" value="否" style="edgeLabel;html=1;align=center;verticalAlign=middle;resizable=0;points=[];fontFamily=Helvetica;fontSize=11;fontColor=default;labelBackgroundColor=default;" vertex="1" connectable="0" parent="QM46VXPzepDQlr1Fwprh-100">
          <mxGeometry x="-0.2273" y="4" relative="1" as="geometry">
            <mxPoint as="offset" />
          </mxGeometry>
        </mxCell>
        <mxCell id="QM46VXPzepDQlr1Fwprh-90" value="是否取消预约单" style="rhombus;whiteSpace=wrap;html=1;" vertex="1" parent="1">
          <mxGeometry x="1146" y="420" width="80" height="80" as="geometry" />
        </mxCell>
        <mxCell id="QM46VXPzepDQlr1Fwprh-98" value="&lt;span style=&quot;font-size: 12px; background-color: rgb(251, 251, 251);&quot;&gt;取消弹窗&lt;/span&gt;" style="rounded=1;whiteSpace=wrap;html=1;fontFamily=Helvetica;fontSize=11;fontColor=default;labelBackgroundColor=default;" vertex="1" parent="1">
          <mxGeometry x="1270" y="440" width="60" height="40" as="geometry" />
        </mxCell>
        <mxCell id="QM46VXPzepDQlr1Fwprh-102" value="查看详情" style="whiteSpace=wrap;html=1;rounded=1;glass=0;strokeWidth=1;shadow=0;" vertex="1" parent="1">
          <mxGeometry x="851" y="340" width="80" height="40" as="geometry" />
        </mxCell>
        <mxCell id="QM46VXPzepDQlr1Fwprh-103" style="edgeStyle=orthogonalEdgeStyle;shape=connector;rounded=0;orthogonalLoop=1;jettySize=auto;html=1;entryX=0.658;entryY=0;entryDx=0;entryDy=0;entryPerimeter=0;strokeColor=default;align=center;verticalAlign=middle;fontFamily=Helvetica;fontSize=11;fontColor=default;labelBackgroundColor=default;endArrow=classic;" edge="1" parent="1">
          <mxGeometry relative="1" as="geometry">
            <mxPoint x="910" y="340" as="sourcePoint" />
            <mxPoint x="633.96" y="330" as="targetPoint" />
            <Array as="points">
              <mxPoint x="910" y="310" />
              <mxPoint x="634" y="310" />
            </Array>
          </mxGeometry>
        </mxCell>
        <mxCell id="QM46VXPzepDQlr1Fwprh-104" value="携带当前行信息" style="edgeLabel;html=1;align=center;verticalAlign=middle;resizable=0;points=[];fontFamily=Helvetica;fontSize=11;fontColor=default;labelBackgroundColor=default;" vertex="1" connectable="0" parent="QM46VXPzepDQlr1Fwprh-103">
          <mxGeometry x="-0.638" relative="1" as="geometry">
            <mxPoint x="-25" as="offset" />
          </mxGeometry>
        </mxCell>
        <mxCell id="QM46VXPzepDQlr1Fwprh-106" value="查询当前可预约时间" style="rounded=1;whiteSpace=wrap;html=1;fontFamily=Helvetica;fontSize=11;fontColor=default;labelBackgroundColor=default;" vertex="1" parent="1">
          <mxGeometry x="340" y="545" width="120" height="60" as="geometry" />
        </mxCell>
        <mxCell id="QM46VXPzepDQlr1Fwprh-105" style="edgeStyle=orthogonalEdgeStyle;shape=connector;rounded=0;orthogonalLoop=1;jettySize=auto;html=1;strokeColor=default;align=center;verticalAlign=middle;fontFamily=Helvetica;fontSize=11;fontColor=default;labelBackgroundColor=default;endArrow=classic;" edge="1" parent="1" source="QM46VXPzepDQlr1Fwprh-62" target="QM46VXPzepDQlr1Fwprh-106">
          <mxGeometry relative="1" as="geometry">
            <mxPoint x="420" y="575" as="targetPoint" />
          </mxGeometry>
        </mxCell>
      </root>
    </mxGraphModel>
  </diagram>
</mxfile>
